<?xml version="1.0" encoding="iso-8859-1"?>
<!-- Generator: Adobe Illustrator 19.0.0, SVG Export Plug-In . SVG Version: 6.00 Build 0)  -->
<svg version="1.1" id="Capa_1" xmlns="http://www.w3.org/2000/svg" xmlns:xlink="http://www.w3.org/1999/xlink" x="0px" y="0px"
	 viewBox="0 0 480 480" style="enable-background:new 0 0 480 480;" xml:space="preserve">
<g>
	<path style="fill:#E17277;" d="M477.037,17.778H2.963v254.815h474.074V17.778z M74.074,213.333v11.852v5.926v23.704v5.926h-5.926
		h-29.63h-5.926v-5.926v-23.704v-5.926v-11.852v-5.926h5.926h29.63h5.926V213.333z M74.074,136.296v11.852v5.926v23.704v5.926
		h-5.926h-29.63h-5.926v-5.926v-23.704v-5.926v-11.852v-5.926h5.926h29.63h5.926V136.296z M74.074,59.259v11.852v5.926v23.704v5.926
		h-5.926h-29.63h-5.926v-5.926V77.037v-5.926V59.259v-5.926h5.926h29.63h5.926V59.259z M127.407,213.333v11.852v5.926v23.704v5.926
		h-5.926h-29.63h-5.926v-5.926v-23.704v-5.926v-11.852v-5.926h5.926h29.63h5.926V213.333z M127.407,136.296v11.852v5.926v23.704
		v5.926h-5.926h-29.63h-5.926v-5.926v-23.704v-5.926v-11.852v-5.926h5.926h29.63h5.926V136.296z M127.407,59.259v11.852v5.926
		v23.704v5.926h-5.926h-29.63h-5.926v-5.926V77.037v-5.926V59.259v-5.926h5.926h29.63h5.926V59.259z M180.741,213.333v11.852v5.926
		v23.704v5.926h-5.926h-29.63h-5.926v-5.926v-23.704v-5.926v-11.852v-5.926h5.926h29.63h5.926V213.333z M180.741,136.296v11.852
		v5.926v23.704v5.926h-5.926h-29.63h-5.926v-5.926v-23.704v-5.926v-11.852v-5.926h5.926h29.63h5.926V136.296z M180.741,59.259
		v11.852v5.926v23.704v5.926h-5.926h-29.63h-5.926v-5.926V77.037v-5.926V59.259v-5.926h5.926h29.63h5.926V59.259z M234.074,213.333
		v11.852v5.926v23.704v5.926h-5.926h-29.63h-5.926v-5.926v-23.704v-5.926v-11.852v-5.926h5.926h29.63h5.926V213.333z
		 M234.074,136.296v11.852v5.926v23.704v5.926h-5.926h-29.63h-5.926v-5.926v-23.704v-5.926v-11.852v-5.926h5.926h29.63h5.926
		V136.296z M234.074,59.259v11.852v5.926v23.704v5.926h-5.926h-29.63h-5.926v-5.926V77.037v-5.926V59.259v-5.926h5.926h29.63h5.926
		V59.259z M287.407,213.333v11.852v5.926v23.704v5.926h-5.926h-29.63h-5.926v-5.926v-23.704v-5.926v-11.852v-5.926h5.926h29.63
		h5.926V213.333z M287.407,136.296v11.852v5.926v23.704v5.926h-5.926h-29.63h-5.926v-5.926v-23.704v-5.926v-11.852v-5.926h5.926
		h29.63h5.926V136.296z M287.407,59.259v11.852v5.926v23.704v5.926h-5.926h-29.63h-5.926v-5.926V77.037v-5.926V59.259v-5.926h5.926
		h29.63h5.926V59.259z M340.741,213.333v11.852v5.926v23.704v5.926h-5.926h-29.63h-5.926v-5.926v-23.704v-5.926v-11.852v-5.926
		h5.926h29.63h5.926V213.333z M340.741,136.296v11.852v5.926v23.704v5.926h-5.926h-29.63h-5.926v-5.926v-23.704v-5.926v-11.852
		v-5.926h5.926h29.63h5.926V136.296z M340.741,59.259v11.852v5.926v23.704v5.926h-5.926h-29.63h-5.926v-5.926V77.037v-5.926V59.259
		v-5.926h5.926h29.63h5.926V59.259z M394.074,213.333v11.852v5.926v23.704v5.926h-5.926h-29.63h-5.926v-5.926v-23.704v-5.926
		v-11.852v-5.926h5.926h29.63h5.926V213.333z M394.074,136.296v11.852v5.926v23.704v5.926h-5.926h-29.63h-5.926v-5.926v-23.704
		v-5.926v-11.852v-5.926h5.926h29.63h5.926V136.296z M394.074,59.259v11.852v5.926v23.704v5.926h-5.926h-29.63h-5.926v-5.926V77.037
		v-5.926V59.259v-5.926h5.926h29.63h5.926V59.259z M447.407,213.333v11.852v5.926v23.704v5.926h-5.926h-29.63h-5.926v-5.926v-23.704
		v-5.926v-11.852v-5.926h5.926h29.63h5.926V213.333z M447.407,136.296v11.852v5.926v23.704v5.926h-5.926h-29.63h-5.926v-5.926
		v-23.704v-5.926v-11.852v-5.926h5.926h29.63h5.926V136.296z M447.407,71.111v5.926v23.704v5.926h-5.926h-29.63h-5.926v-5.926
		V77.037v-5.926V59.259v-5.926h5.926h29.63h5.926v5.926V71.111z"/>
	<path style="fill:#BF515A;" d="M2.963,438.519h474.074v35.556l0,0v-189.63H2.963V438.519z M405.926,343.704V320v-5.926v-11.852
		v-5.926h5.926h29.63h5.926v5.926v11.852V320v23.704v5.926h-5.926h-29.63h-5.926V343.704z M405.926,420.741v-23.704v-5.926v-11.852
		v-5.926h5.926h29.63h5.926v5.926v11.852v5.926v23.704v5.926h-5.926h-29.63h-5.926V420.741z M352.593,343.704V320v-5.926v-11.852
		v-5.926h5.926h29.63h5.926v5.926v11.852V320v23.704v5.926h-5.926h-29.63h-5.926V343.704z M352.593,420.741v-23.704v-5.926v-11.852
		v-5.926h5.926h29.63h5.926v5.926v11.852v5.926v23.704v5.926h-5.926h-29.63h-5.926V420.741z M299.259,343.704V320v-5.926v-11.852
		v-5.926h5.926h29.63h5.926v5.926v11.852V320v23.704v5.926h-5.926h-29.63h-5.926V343.704z M299.259,420.741v-23.704v-5.926v-11.852
		v-5.926h5.926h29.63h5.926v5.926v11.852v5.926v23.704v5.926h-5.926h-29.63h-5.926V420.741z M245.926,343.704V320v-5.926v-11.852
		v-5.926h5.926h29.63h5.926v5.926v11.852V320v23.704v5.926h-5.926h-29.63h-5.926V343.704z M245.926,420.741v-23.704v-5.926v-11.852
		v-5.926h5.926h29.63h5.926v5.926v11.852v5.926v23.704v5.926h-5.926h-29.63h-5.926V420.741z M192.593,343.704V320v-5.926v-11.852
		v-5.926h5.926h29.63h5.926v5.926v11.852V320v23.704v5.926h-5.926h-29.63h-5.926V343.704z M192.593,420.741v-23.704v-5.926v-11.852
		v-5.926h5.926h29.63h5.926v5.926v11.852v5.926v23.704v5.926h-5.926h-29.63h-5.926V420.741z M139.259,343.704V320v-5.926v-11.852
		v-5.926h5.926h29.63h5.926v5.926v11.852V320v23.704v5.926h-5.926h-29.63h-5.926V343.704z M139.259,420.741v-23.704v-5.926v-11.852
		v-5.926h5.926h29.63h5.926v5.926v11.852v5.926v23.704v5.926h-5.926h-29.63h-5.926V420.741z M85.926,343.704V320v-5.926v-11.852
		v-5.926h5.926h29.63h5.926v5.926v11.852V320v23.704v5.926h-5.926h-29.63h-5.926V343.704z M85.926,420.741v-23.704v-5.926v-11.852
		v-5.926h5.926h29.63h5.926v5.926v11.852v5.926v23.704v5.926h-5.926h-29.63h-5.926V420.741z M32.593,343.704V320v-5.926v-11.852
		v-5.926h5.926h29.63h5.926v5.926v11.852V320v23.704v5.926h-5.926h-29.63h-5.926V343.704z M32.593,397.037v-5.926v-11.852v-5.926
		h5.926h29.63h5.926v5.926v11.852v5.926v23.704v5.926h-5.926h-29.63h-5.926v-5.926V397.037z"/>
	<polygon style="fill:#95FFFF;" points="38.519,254.815 62.222,254.815 38.519,231.111 	"/>
	<polygon style="fill:#80D7F0;" points="62.222,254.815 68.148,254.815 68.148,231.111 38.519,231.111 	"/>
	<rect x="38.519" y="213.333" style="fill:#6EB1E2;" width="29.63" height="11.852"/>
	<path style="fill:#695A69;" d="M38.519,207.407h-5.926v5.926v11.852v5.926v23.704v5.926h5.926h29.63h5.926v-5.926v-23.704v-5.926
		v-11.852v-5.926h-5.926H38.519z M68.148,254.815h-5.926H38.519v-23.704h29.63V254.815z M68.148,225.185h-29.63v-11.852h29.63
		V225.185z"/>
	<polygon style="fill:#95FFFF;" points="91.852,254.815 115.556,254.815 91.852,231.111 	"/>
	<polygon style="fill:#80D7F0;" points="115.556,254.815 121.482,254.815 121.482,231.111 91.852,231.111 	"/>
	<rect x="91.852" y="213.333" style="fill:#6EB1E2;" width="29.63" height="11.852"/>
	<path style="fill:#695A69;" d="M91.852,207.407h-5.926v5.926v11.852v5.926v23.704v5.926h5.926h29.63h5.926v-5.926v-23.704v-5.926
		v-11.852v-5.926h-5.926H91.852z M121.482,254.815h-5.926H91.852v-23.704h29.63V254.815z M121.482,225.185h-29.63v-11.852h29.63
		V225.185z"/>
	<polygon style="fill:#95FFFF;" points="145.185,254.815 168.889,254.815 145.185,231.111 	"/>
	<polygon style="fill:#80D7F0;" points="168.889,254.815 174.815,254.815 174.815,231.111 145.185,231.111 	"/>
	<rect x="145.185" y="213.333" style="fill:#6EB1E2;" width="29.63" height="11.852"/>
	<path style="fill:#695A69;" d="M145.185,207.407h-5.926v5.926v11.852v5.926v23.704v5.926h5.926h29.63h5.926v-5.926v-23.704v-5.926
		v-11.852v-5.926h-5.926H145.185z M174.815,254.815h-5.926h-23.704v-23.704h29.63V254.815z M174.815,225.185h-29.63v-11.852h29.63
		V225.185z"/>
	<polygon style="fill:#95FFFF;" points="198.519,254.815 222.222,254.815 198.519,231.111 	"/>
	<polygon style="fill:#80D7F0;" points="222.222,254.815 228.148,254.815 228.148,231.111 198.519,231.111 	"/>
	<rect x="198.519" y="213.333" style="fill:#6EB1E2;" width="29.63" height="11.852"/>
	<path style="fill:#695A69;" d="M198.519,207.407h-5.926v5.926v11.852v5.926v23.704v5.926h5.926h29.63h5.926v-5.926v-23.704v-5.926
		v-11.852v-5.926h-5.926H198.519z M228.148,254.815h-5.926h-23.704v-23.704h29.63V254.815z M228.148,225.185h-29.63v-11.852h29.63
		V225.185z"/>
	<polygon style="fill:#95FFFF;" points="251.852,254.815 275.556,254.815 251.852,231.111 	"/>
	<polygon style="fill:#80D7F0;" points="275.556,254.815 281.482,254.815 281.482,231.111 251.852,231.111 	"/>
	<rect x="251.852" y="213.333" style="fill:#6EB1E2;" width="29.63" height="11.852"/>
	<path style="fill:#695A69;" d="M251.852,207.407h-5.926v5.926v11.852v5.926v23.704v5.926h5.926h29.63h5.926v-5.926v-23.704v-5.926
		v-11.852v-5.926h-5.926H251.852z M281.482,254.815h-5.926h-23.704v-23.704h29.63V254.815z M281.482,225.185h-29.63v-11.852h29.63
		V225.185z"/>
	<polygon style="fill:#95FFFF;" points="305.185,254.815 328.889,254.815 305.185,231.111 	"/>
	<polygon style="fill:#80D7F0;" points="328.889,254.815 334.815,254.815 334.815,231.111 305.185,231.111 	"/>
	<rect x="305.185" y="213.333" style="fill:#6EB1E2;" width="29.63" height="11.852"/>
	<path style="fill:#695A69;" d="M305.185,207.407h-5.926v5.926v11.852v5.926v23.704v5.926h5.926h29.63h5.926v-5.926v-23.704v-5.926
		v-11.852v-5.926h-5.926H305.185z M334.815,254.815h-5.926h-23.704v-23.704h29.63V254.815z M334.815,225.185h-29.63v-11.852h29.63
		V225.185z"/>
	<polygon style="fill:#95FFFF;" points="358.519,254.815 382.222,254.815 358.519,231.111 	"/>
	<polygon style="fill:#80D7F0;" points="382.222,254.815 388.148,254.815 388.148,231.111 358.519,231.111 	"/>
	<rect x="358.519" y="213.333" style="fill:#6EB1E2;" width="29.63" height="11.852"/>
	<path style="fill:#695A69;" d="M358.519,207.407h-5.926v5.926v11.852v5.926v23.704v5.926h5.926h29.63h5.926v-5.926v-23.704v-5.926
		v-11.852v-5.926h-5.926H358.519z M388.148,254.815h-5.926h-23.704v-23.704h29.63V254.815z M388.148,225.185h-29.63v-11.852h29.63
		V225.185z"/>
	<polygon style="fill:#95FFFF;" points="411.852,254.815 435.556,254.815 411.852,231.111 	"/>
	<polygon style="fill:#80D7F0;" points="435.556,254.815 441.482,254.815 441.482,231.111 411.852,231.111 	"/>
	<rect x="411.852" y="213.333" style="fill:#6EB1E2;" width="29.63" height="11.852"/>
	<path style="fill:#695A69;" d="M411.852,207.407h-5.926v5.926v11.852v5.926v23.704v5.926h5.926h29.63h5.926v-5.926v-23.704v-5.926
		v-11.852v-5.926h-5.926H411.852z M441.482,254.815h-5.926h-23.704v-23.704h29.63V254.815z M441.482,225.185h-29.63v-11.852h29.63
		V225.185z"/>
	<polygon style="fill:#95FFFF;" points="38.519,177.778 62.222,177.778 38.519,154.074 	"/>
	<polygon style="fill:#80D7F0;" points="62.222,177.778 68.148,177.778 68.148,154.074 38.519,154.074 	"/>
	<rect x="38.519" y="136.296" style="fill:#6EB1E2;" width="29.63" height="11.852"/>
	<path style="fill:#695A69;" d="M38.519,130.37h-5.926v5.926v11.852v5.926v23.704v5.926h5.926h29.63h5.926v-5.926v-23.704v-5.926
		v-11.852v-5.926h-5.926H38.519z M68.148,177.778h-5.926H38.519v-23.704h29.63V177.778z M68.148,148.148h-29.63v-11.852h29.63
		V148.148z"/>
	<polygon style="fill:#95FFFF;" points="91.852,177.778 115.556,177.778 91.852,154.074 	"/>
	<polygon style="fill:#80D7F0;" points="115.556,177.778 121.482,177.778 121.482,154.074 91.852,154.074 	"/>
	<rect x="91.852" y="136.296" style="fill:#6EB1E2;" width="29.63" height="11.852"/>
	<path style="fill:#695A69;" d="M91.852,130.37h-5.926v5.926v11.852v5.926v23.704v5.926h5.926h29.63h5.926v-5.926v-23.704v-5.926
		v-11.852v-5.926h-5.926H91.852z M121.482,177.778h-5.926H91.852v-23.704h29.63V177.778z M121.482,148.148h-29.63v-11.852h29.63
		V148.148z"/>
	<polygon style="fill:#95FFFF;" points="145.185,177.778 168.889,177.778 145.185,154.074 	"/>
	<polygon style="fill:#80D7F0;" points="168.889,177.778 174.815,177.778 174.815,154.074 145.185,154.074 	"/>
	<rect x="145.185" y="136.296" style="fill:#6EB1E2;" width="29.63" height="11.852"/>
	<path style="fill:#695A69;" d="M145.185,130.37h-5.926v5.926v11.852v5.926v23.704v5.926h5.926h29.63h5.926v-5.926v-23.704v-5.926
		v-11.852v-5.926h-5.926H145.185z M174.815,177.778h-5.926h-23.704v-23.704h29.63V177.778z M174.815,148.148h-29.63v-11.852h29.63
		V148.148z"/>
	<polygon style="fill:#95FFFF;" points="198.519,177.778 222.222,177.778 198.519,154.074 	"/>
	<polygon style="fill:#80D7F0;" points="222.222,177.778 228.148,177.778 228.148,154.074 198.519,154.074 	"/>
	<rect x="198.519" y="136.296" style="fill:#6EB1E2;" width="29.63" height="11.852"/>
	<path style="fill:#695A69;" d="M198.519,130.37h-5.926v5.926v11.852v5.926v23.704v5.926h5.926h29.63h5.926v-5.926v-23.704v-5.926
		v-11.852v-5.926h-5.926H198.519z M228.148,177.778h-5.926h-23.704v-23.704h29.63V177.778z M228.148,148.148h-29.63v-11.852h29.63
		V148.148z"/>
	<polygon style="fill:#95FFFF;" points="251.852,177.778 275.556,177.778 251.852,154.074 	"/>
	<polygon style="fill:#80D7F0;" points="275.556,177.778 281.482,177.778 281.482,154.074 251.852,154.074 	"/>
	<rect x="251.852" y="136.296" style="fill:#6EB1E2;" width="29.63" height="11.852"/>
	<path style="fill:#695A69;" d="M251.852,130.37h-5.926v5.926v11.852v5.926v23.704v5.926h5.926h29.63h5.926v-5.926v-23.704v-5.926
		v-11.852v-5.926h-5.926H251.852z M281.482,177.778h-5.926h-23.704v-23.704h29.63V177.778z M281.482,148.148h-29.63v-11.852h29.63
		V148.148z"/>
	<polygon style="fill:#95FFFF;" points="305.185,177.778 328.889,177.778 305.185,154.074 	"/>
	<polygon style="fill:#80D7F0;" points="328.889,177.778 334.815,177.778 334.815,154.074 305.185,154.074 	"/>
	<rect x="305.185" y="136.296" style="fill:#6EB1E2;" width="29.63" height="11.852"/>
	<path style="fill:#695A69;" d="M305.185,130.37h-5.926v5.926v11.852v5.926v23.704v5.926h5.926h29.63h5.926v-5.926v-23.704v-5.926
		v-11.852v-5.926h-5.926H305.185z M334.815,177.778h-5.926h-23.704v-23.704h29.63V177.778z M334.815,148.148h-29.63v-11.852h29.63
		V148.148z"/>
	<polygon style="fill:#95FFFF;" points="358.519,177.778 382.222,177.778 358.519,154.074 	"/>
	<polygon style="fill:#80D7F0;" points="382.222,177.778 388.148,177.778 388.148,154.074 358.519,154.074 	"/>
	<rect x="358.519" y="136.296" style="fill:#6EB1E2;" width="29.63" height="11.852"/>
	<path style="fill:#695A69;" d="M358.519,130.37h-5.926v5.926v11.852v5.926v23.704v5.926h5.926h29.63h5.926v-5.926v-23.704v-5.926
		v-11.852v-5.926h-5.926H358.519z M388.148,177.778h-5.926h-23.704v-23.704h29.63V177.778z M388.148,148.148h-29.63v-11.852h29.63
		V148.148z"/>
	<polygon style="fill:#95FFFF;" points="411.852,177.778 435.556,177.778 411.852,154.074 	"/>
	<polygon style="fill:#80D7F0;" points="435.556,177.778 441.482,177.778 441.482,154.074 411.852,154.074 	"/>
	<rect x="411.852" y="136.296" style="fill:#6EB1E2;" width="29.63" height="11.852"/>
	<path style="fill:#695A69;" d="M411.852,130.37h-5.926v5.926v11.852v5.926v23.704v5.926h5.926h29.63h5.926v-5.926v-23.704v-5.926
		v-11.852v-5.926h-5.926H411.852z M441.482,177.778h-5.926h-23.704v-23.704h29.63V177.778z M441.482,148.148h-29.63v-11.852h29.63
		V148.148z"/>
	<polygon style="fill:#95FFFF;" points="91.852,100.741 115.556,100.741 91.852,77.037 	"/>
	<polygon style="fill:#80D7F0;" points="115.556,100.741 121.482,100.741 121.482,77.037 91.852,77.037 	"/>
	<rect x="91.852" y="59.259" style="fill:#6EB1E2;" width="29.63" height="11.852"/>
	<path style="fill:#695A69;" d="M91.852,53.333h-5.926v5.926v11.852v5.926v23.704v5.926h5.926h29.63h5.926v-5.926V77.037v-5.926
		V59.259v-5.926h-5.926H91.852z M121.482,100.741h-5.926H91.852V77.037h29.63V100.741z M121.482,71.111h-29.63V59.259h29.63V71.111z
		"/>
	<polygon style="fill:#95FFFF;" points="38.518,100.741 62.222,100.741 38.518,77.037 	"/>
	<polygon style="fill:#80D7F0;" points="62.222,100.741 68.148,100.741 68.148,77.037 38.518,77.037 	"/>
	<rect x="38.518" y="59.259" style="fill:#6EB1E2;" width="29.63" height="11.852"/>
	<path style="fill:#695A69;" d="M38.518,53.333h-5.926v5.926v11.852v5.926v23.704v5.926h5.926h29.63h5.926v-5.926V77.037v-5.926
		V59.259v-5.926h-5.926H38.518z M68.148,100.741h-5.926H38.518V77.037h29.63V100.741z M68.148,71.111h-29.63V59.259h29.63V71.111z"
		/>
	<polygon style="fill:#95FFFF;" points="145.185,100.741 168.889,100.741 145.185,77.037 	"/>
	<polygon style="fill:#80D7F0;" points="168.889,100.741 174.815,100.741 174.815,77.037 145.185,77.037 	"/>
	<rect x="145.185" y="59.259" style="fill:#6EB1E2;" width="29.63" height="11.852"/>
	<path style="fill:#695A69;" d="M145.185,53.333h-5.926v5.926v11.852v5.926v23.704v5.926h5.926h29.63h5.926v-5.926V77.037v-5.926
		V59.259v-5.926h-5.926H145.185z M174.815,100.741h-5.926h-23.704V77.037h29.63V100.741z M174.815,71.111h-29.63V59.259h29.63
		V71.111z"/>
	<polygon style="fill:#95FFFF;" points="198.519,100.741 222.222,100.741 198.519,77.037 	"/>
	<polygon style="fill:#80D7F0;" points="222.222,100.741 228.148,100.741 228.148,77.037 198.519,77.037 	"/>
	<rect x="198.519" y="59.259" style="fill:#6EB1E2;" width="29.63" height="11.852"/>
	<path style="fill:#695A69;" d="M198.519,53.333h-5.926v5.926v11.852v5.926v23.704v5.926h5.926h29.63h5.926v-5.926V77.037v-5.926
		V59.259v-5.926h-5.926H198.519z M228.148,100.741h-5.926h-23.704V77.037h29.63V100.741z M228.148,71.111h-29.63V59.259h29.63
		V71.111z"/>
	<polygon style="fill:#95FFFF;" points="251.852,100.741 275.556,100.741 251.852,77.037 	"/>
	<polygon style="fill:#80D7F0;" points="275.556,100.741 281.482,100.741 281.482,77.037 251.852,77.037 	"/>
	<rect x="251.852" y="59.259" style="fill:#6EB1E2;" width="29.63" height="11.852"/>
	<path style="fill:#695A69;" d="M251.852,53.333h-5.926v5.926v11.852v5.926v23.704v5.926h5.926h29.63h5.926v-5.926V77.037v-5.926
		V59.259v-5.926h-5.926H251.852z M281.482,100.741h-5.926h-23.704V77.037h29.63V100.741z M281.482,71.111h-29.63V59.259h29.63
		V71.111z"/>
	<polygon style="fill:#95FFFF;" points="305.185,100.741 328.889,100.741 305.185,77.037 	"/>
	<polygon style="fill:#80D7F0;" points="328.889,100.741 334.815,100.741 334.815,77.037 305.185,77.037 	"/>
	<rect x="305.185" y="59.259" style="fill:#6EB1E2;" width="29.63" height="11.852"/>
	<path style="fill:#695A69;" d="M305.185,53.333h-5.926v5.926v11.852v5.926v23.704v5.926h5.926h29.63h5.926v-5.926V77.037v-5.926
		V59.259v-5.926h-5.926H305.185z M334.815,100.741h-5.926h-23.704V77.037h29.63V100.741z M334.815,71.111h-29.63V59.259h29.63
		V71.111z"/>
	<polygon style="fill:#95FFFF;" points="358.519,100.741 382.222,100.741 358.519,77.037 	"/>
	<polygon style="fill:#80D7F0;" points="382.222,100.741 388.148,100.741 388.148,77.037 358.519,77.037 	"/>
	<rect x="358.519" y="59.259" style="fill:#6EB1E2;" width="29.63" height="11.852"/>
	<path style="fill:#695A69;" d="M358.519,53.333h-5.926v5.926v11.852v5.926v23.704v5.926h5.926h29.63h5.926v-5.926V77.037v-5.926
		V59.259v-5.926h-5.926H358.519z M388.148,100.741h-5.926h-23.704V77.037h29.63V100.741z M388.148,71.111h-29.63V59.259h29.63
		V71.111z"/>
	<polygon style="fill:#95FFFF;" points="411.852,100.741 435.556,100.741 411.852,77.037 	"/>
	<polygon style="fill:#80D7F0;" points="435.556,100.741 441.482,100.741 441.482,77.037 411.852,77.037 	"/>
	<rect x="411.852" y="59.259" style="fill:#6EB1E2;" width="29.63" height="11.852"/>
	<path style="fill:#695A69;" d="M441.482,53.333h-29.63h-5.926v5.926v11.852v5.926v23.704v5.926h5.926h29.63h5.926v-5.926V77.037
		v-5.926V59.259v-5.926H441.482z M441.482,100.741h-5.926h-23.704V77.037h29.63V100.741z M441.482,71.111h-29.63V59.259h29.63
		V71.111z"/>
	<rect x="2.963" y="5.926" style="fill:#BF515A;" width="474.074" height="11.852"/>
	<polygon style="fill:#80D7F0;" points="38.519,320 38.519,343.704 62.222,343.704 	"/>
	<polygon style="fill:#6EB1E2;" points="68.148,343.704 68.148,320 38.519,320 62.222,343.704 	"/>
	<rect x="38.519" y="302.222" style="fill:#4B82AF;" width="29.63" height="11.852"/>
	<path style="fill:#695A69;" d="M68.148,349.63h5.926v-5.926V320v-5.926v-11.852v-5.926h-5.926h-29.63h-5.926v5.926v11.852V320
		v23.704v5.926h5.926H68.148z M38.519,302.222h29.63v11.852h-29.63V302.222z M38.519,320h29.63v23.704h-5.926H38.519V320z"/>
	<polygon style="fill:#80D7F0;" points="38.519,397.037 38.519,420.741 62.222,420.741 	"/>
	<polygon style="fill:#6EB1E2;" points="68.148,420.741 68.148,397.037 38.519,397.037 62.222,420.741 	"/>
	<rect x="38.519" y="379.259" style="fill:#4B82AF;" width="29.63" height="11.852"/>
	<path style="fill:#695A69;" d="M38.519,426.667h29.63h5.926v-5.926v-23.704v-5.926v-11.852v-5.926h-5.926h-29.63h-5.926v5.926
		v11.852v5.926v23.704v5.926H38.519z M38.519,379.259h29.63v11.852h-29.63V379.259z M38.519,397.037h29.63v23.704h-5.926H38.519
		V397.037z"/>
	<polygon style="fill:#80D7F0;" points="91.852,320 91.852,343.704 115.556,343.704 	"/>
	<polygon style="fill:#6EB1E2;" points="121.481,343.704 121.481,320 91.852,320 115.556,343.704 	"/>
	<rect x="91.852" y="302.222" style="fill:#4B82AF;" width="29.63" height="11.852"/>
	<path style="fill:#695A69;" d="M121.481,349.63h5.926v-5.926V320v-5.926v-11.852v-5.926h-5.926h-29.63h-5.926v5.926v11.852V320
		v23.704v5.926h5.926H121.481z M91.852,302.222h29.63v11.852h-29.63V302.222z M91.852,320h29.63v23.704h-5.926H91.852V320z"/>
	<polygon style="fill:#80D7F0;" points="91.852,397.037 91.852,420.741 115.556,420.741 	"/>
	<polygon style="fill:#6EB1E2;" points="121.481,420.741 121.481,397.037 91.852,397.037 115.556,420.741 	"/>
	<rect x="91.852" y="379.259" style="fill:#4B82AF;" width="29.63" height="11.852"/>
	<path style="fill:#695A69;" d="M121.481,426.667h5.926v-5.926v-23.704v-5.926v-11.852v-5.926h-5.926h-29.63h-5.926v5.926v11.852
		v5.926v23.704v5.926h5.926H121.481z M91.852,379.259h29.63v11.852h-29.63V379.259z M91.852,397.037h29.63v23.704h-5.926H91.852
		V397.037z"/>
	<polygon style="fill:#80D7F0;" points="145.185,320 145.185,343.704 168.889,343.704 	"/>
	<polygon style="fill:#6EB1E2;" points="174.815,343.704 174.815,320 145.185,320 168.889,343.704 	"/>
	<rect x="145.185" y="302.222" style="fill:#4B82AF;" width="29.63" height="11.852"/>
	<path style="fill:#695A69;" d="M174.815,349.63h5.926v-5.926V320v-5.926v-11.852v-5.926h-5.926h-29.63h-5.926v5.926v11.852V320
		v23.704v5.926h5.926H174.815z M145.185,302.222h29.63v11.852h-29.63V302.222z M145.185,320h29.63v23.704h-5.926h-23.704V320z"/>
	<polygon style="fill:#80D7F0;" points="145.185,397.037 145.185,420.741 168.889,420.741 	"/>
	<polygon style="fill:#6EB1E2;" points="174.815,420.741 174.815,397.037 145.185,397.037 168.889,420.741 	"/>
	<rect x="145.185" y="379.259" style="fill:#4B82AF;" width="29.63" height="11.852"/>
	<path style="fill:#695A69;" d="M174.815,426.667h5.926v-5.926v-23.704v-5.926v-11.852v-5.926h-5.926h-29.63h-5.926v5.926v11.852
		v5.926v23.704v5.926h5.926H174.815z M145.185,379.259h29.63v11.852h-29.63V379.259z M145.185,397.037h29.63v23.704h-5.926h-23.704
		V397.037z"/>
	<polygon style="fill:#80D7F0;" points="198.518,320 198.518,343.704 222.222,343.704 	"/>
	<polygon style="fill:#6EB1E2;" points="228.148,343.704 228.148,320 198.518,320 222.222,343.704 	"/>
	<rect x="198.518" y="302.222" style="fill:#4B82AF;" width="29.63" height="11.852"/>
	<path style="fill:#695A69;" d="M228.148,349.63h5.926v-5.926V320v-5.926v-11.852v-5.926h-5.926h-29.63h-5.926v5.926v11.852V320
		v23.704v5.926h5.926H228.148z M198.518,302.222h29.63v11.852h-29.63V302.222z M198.518,320h29.63v23.704h-5.926h-23.704V320z"/>
	<polygon style="fill:#80D7F0;" points="198.518,397.037 198.518,420.741 222.222,420.741 	"/>
	<polygon style="fill:#6EB1E2;" points="228.148,420.741 228.148,397.037 198.518,397.037 222.222,420.741 	"/>
	<rect x="198.518" y="379.259" style="fill:#4B82AF;" width="29.63" height="11.852"/>
	<path style="fill:#695A69;" d="M228.148,426.667h5.926v-5.926v-23.704v-5.926v-11.852v-5.926h-5.926h-29.63h-5.926v5.926v11.852
		v5.926v23.704v5.926h5.926H228.148z M198.518,379.259h29.63v11.852h-29.63V379.259z M198.518,397.037h29.63v23.704h-5.926h-23.704
		V397.037z"/>
	<polygon style="fill:#80D7F0;" points="251.852,320 251.852,343.704 275.556,343.704 	"/>
	<polygon style="fill:#6EB1E2;" points="281.481,343.704 281.481,320 251.852,320 275.556,343.704 	"/>
	<rect x="251.852" y="302.222" style="fill:#4B82AF;" width="29.63" height="11.852"/>
	<path style="fill:#695A69;" d="M281.481,349.63h5.926v-5.926V320v-5.926v-11.852v-5.926h-5.926h-29.63h-5.926v5.926v11.852V320
		v23.704v5.926h5.926H281.481z M251.852,302.222h29.63v11.852h-29.63V302.222z M251.852,320h29.63v23.704h-5.926h-23.704V320z"/>
	<polygon style="fill:#80D7F0;" points="251.852,397.037 251.852,420.741 275.556,420.741 	"/>
	<polygon style="fill:#6EB1E2;" points="281.481,420.741 281.481,397.037 251.852,397.037 275.556,420.741 	"/>
	<rect x="251.852" y="379.259" style="fill:#4B82AF;" width="29.63" height="11.852"/>
	<path style="fill:#695A69;" d="M281.481,426.667h5.926v-5.926v-23.704v-5.926v-11.852v-5.926h-5.926h-29.63h-5.926v5.926v11.852
		v5.926v23.704v5.926h5.926H281.481z M251.852,379.259h29.63v11.852h-29.63V379.259z M251.852,397.037h29.63v23.704h-5.926h-23.704
		V397.037z"/>
	<polygon style="fill:#80D7F0;" points="305.185,320 305.185,343.704 328.889,343.704 	"/>
	<polygon style="fill:#6EB1E2;" points="334.815,343.704 334.815,320 305.185,320 328.889,343.704 	"/>
	<rect x="305.185" y="302.222" style="fill:#4B82AF;" width="29.63" height="11.852"/>
	<path style="fill:#695A69;" d="M334.815,349.63h5.926v-5.926V320v-5.926v-11.852v-5.926h-5.926h-29.63h-5.926v5.926v11.852V320
		v23.704v5.926h5.926H334.815z M305.185,302.222h29.63v11.852h-29.63V302.222z M305.185,320h29.63v23.704h-5.926h-23.704V320z"/>
	<polygon style="fill:#80D7F0;" points="305.185,397.037 305.185,420.741 328.889,420.741 	"/>
	<polygon style="fill:#6EB1E2;" points="334.815,420.741 334.815,397.037 305.185,397.037 328.889,420.741 	"/>
	<rect x="305.185" y="379.259" style="fill:#4B82AF;" width="29.63" height="11.852"/>
	<path style="fill:#695A69;" d="M334.815,426.667h5.926v-5.926v-23.704v-5.926v-11.852v-5.926h-5.926h-29.63h-5.926v5.926v11.852
		v5.926v23.704v5.926h5.926H334.815z M305.185,379.259h29.63v11.852h-29.63V379.259z M305.185,397.037h29.63v23.704h-5.926h-23.704
		V397.037z"/>
	<polygon style="fill:#80D7F0;" points="358.518,320 358.518,343.704 382.222,343.704 	"/>
	<polygon style="fill:#6EB1E2;" points="388.148,343.704 388.148,320 358.518,320 382.222,343.704 	"/>
	<rect x="358.518" y="302.222" style="fill:#4B82AF;" width="29.63" height="11.852"/>
	<path style="fill:#695A69;" d="M388.148,349.63h5.926v-5.926V320v-5.926v-11.852v-5.926h-5.926h-29.63h-5.926v5.926v11.852V320
		v23.704v5.926h5.926H388.148z M358.518,302.222h29.63v11.852h-29.63V302.222z M358.518,320h29.63v23.704h-5.926h-23.704V320z"/>
	<polygon style="fill:#80D7F0;" points="358.518,397.037 358.518,420.741 382.222,420.741 	"/>
	<polygon style="fill:#6EB1E2;" points="388.148,420.741 388.148,397.037 358.518,397.037 382.222,420.741 	"/>
	<rect x="358.518" y="379.259" style="fill:#4B82AF;" width="29.63" height="11.852"/>
	<path style="fill:#695A69;" d="M388.148,426.667h5.926v-5.926v-23.704v-5.926v-11.852v-5.926h-5.926h-29.63h-5.926v5.926v11.852
		v5.926v23.704v5.926h5.926H388.148z M358.518,379.259h29.63v11.852h-29.63V379.259z M358.518,397.037h29.63v23.704h-5.926h-23.704
		V397.037z"/>
	<polygon style="fill:#80D7F0;" points="411.852,320 411.852,343.704 435.556,343.704 	"/>
	<polygon style="fill:#6EB1E2;" points="441.481,343.704 441.481,320 411.852,320 435.556,343.704 	"/>
	<rect x="411.852" y="302.222" style="fill:#4B82AF;" width="29.63" height="11.852"/>
	<path style="fill:#695A69;" d="M441.481,349.63h5.926v-5.926V320v-5.926v-11.852v-5.926h-5.926h-29.63h-5.926v5.926v11.852V320
		v23.704v5.926h5.926H441.481z M411.852,302.222h29.63v11.852h-29.63V302.222z M411.852,320h29.63v23.704h-5.926h-23.704V320z"/>
	<polygon style="fill:#80D7F0;" points="411.852,397.037 411.852,420.741 435.556,420.741 	"/>
	<polygon style="fill:#6EB1E2;" points="441.481,420.741 441.481,397.037 411.852,397.037 435.556,420.741 	"/>
	<rect x="411.852" y="379.259" style="fill:#4B82AF;" width="29.63" height="11.852"/>
	<path style="fill:#695A69;" d="M441.481,426.667h5.926v-5.926v-23.704v-5.926v-11.852v-5.926h-5.926h-29.63h-5.926v5.926v11.852
		v5.926v23.704v5.926h5.926H441.481z M411.852,379.259h29.63v11.852h-29.63V379.259z M411.852,397.037h29.63v23.704h-5.926h-23.704
		V397.037z"/>
	<path style="fill:#9C4851;" d="M478,272.593h-0.963H2.963H2c-1.105,0-2,0.895-2,2v7.852c0,1.105,0.895,2,2,2h0.963h474.074H478
		c1.105,0,2-0.895,2-2v-7.852C480,273.488,479.105,272.593,478,272.593z"/>
	<rect x="2.963" y="438.519" style="fill:#9C4851;" width="474.074" height="35.556"/>
</g>
<g>
</g>
<g>
</g>
<g>
</g>
<g>
</g>
<g>
</g>
<g>
</g>
<g>
</g>
<g>
</g>
<g>
</g>
<g>
</g>
<g>
</g>
<g>
</g>
<g>
</g>
<g>
</g>
<g>
</g>
</svg>
