<svg width="42" height="42" viewBox="0 0 16 16" xmlns="http://www.w3.org/2000/svg"><path d="M8 11c1.981 0 3.563-.966 4.824-3-1.261-2.034-2.843-3-4.823-3a3 3 0 0 1 0 6zm-.002 0a3 3 0 0 1 0-6c-1.979 0-3.56.967-4.82 3 1.26 2.033 2.841 3 4.82 3zm.003 2c-2.812 0-5.076-1.453-6.703-4.245a1.5 1.5 0 0 1 0-1.51C2.925 4.453 5.188 3 8.001 3c2.812 0 5.076 1.453 6.702 4.245a1.5 1.5 0 0 1 0 1.51C13.077 11.547 10.813 13 8.001 13zM9 8a1 1 0 1 0 0-2 1 1 0 0 0 0 2z" fill="#380c75" fill-rule="nonzero"></path></svg>